<svg width="419" height="66" viewBox="0 0 419 66" fill="none" xmlns="http://www.w3.org/2000/svg">
<g clip-path="url(#clip0)">
<path fill-rule="evenodd" clip-rule="evenodd" d="M234.107 30.2242C232.223 29.1952 230.747 27.7788 229.677 25.9752C228.607 24.1716 228.073 22.1412 228.073 19.8839C228.073 17.6266 228.607 15.5962 229.677 13.7926C230.747 11.989 232.229 10.5726 234.123 9.54358C236.018 8.51452 238.135 8 240.475 8C242.302 8 243.974 8.30429 245.489 8.91287C247.005 9.52145 248.297 10.4232 249.367 11.6183C249.367 11.6183 247.194 13.3392 245.267 12.1657C243.905 11.3581 242.352 10.9544 240.609 10.9544C238.87 10.9544 237.299 11.3417 235.895 12.1162C234.491 12.8908 233.393 13.9585 232.602 15.3196C231.811 16.6806 231.416 18.202 231.416 19.8839C231.416 21.5658 231.811 23.0872 232.602 24.4482C233.393 25.8093 234.491 26.877 235.895 27.6516C237.299 28.4261 238.87 28.8134 240.609 28.8134C242.329 28.8134 243.869 28.409 245.231 27.6C247.244 26.3799 249.367 28.1163 249.367 28.1163C248.297 29.3114 246.999 30.2187 245.473 30.8383C243.946 31.458 242.269 31.7678 240.442 31.7678C238.101 31.7678 235.99 31.2533 234.107 30.2242ZM258.173 30.2242C256.279 29.1952 254.791 27.7733 253.71 25.9586C252.629 24.1439 252.089 22.1191 252.089 19.8839C252.089 17.6487 252.629 15.6238 253.71 13.8092C254.791 11.9945 256.279 10.5726 258.173 9.54358C260.067 8.51452 262.196 8 264.558 8C266.898 8 269.015 8.51452 270.91 9.54358C272.804 10.5726 274.286 11.989 275.356 13.7926C276.426 15.5962 276.961 17.6266 276.961 19.8839C276.961 22.1412 276.426 24.1716 275.356 25.9752C274.286 27.7788 272.804 29.1952 270.91 30.2242C269.015 31.2533 266.898 31.7678 264.558 31.7678C262.196 31.7678 260.067 31.2533 258.173 30.2242ZM269.188 27.6516C270.559 26.877 271.64 25.8093 272.431 24.4482C273.222 23.0872 273.618 21.5658 273.618 19.8839C273.618 18.202 273.222 16.6806 272.431 15.3196C271.64 13.9585 270.559 12.8908 269.188 12.1162C267.818 11.3417 266.274 10.9544 264.558 10.9544C262.842 10.9544 261.288 11.3417 259.895 12.1162C258.502 12.8908 257.41 13.9585 256.619 15.3196C255.827 16.6806 255.432 18.202 255.432 19.8839C255.432 21.5658 255.827 23.0872 256.619 24.4482C257.41 25.8093 258.502 26.877 259.895 27.6516C261.288 28.4261 262.842 28.8134 264.558 28.8134C266.274 28.8134 267.818 28.4261 269.188 27.6516ZM299.205 8.26556C301.051 8.26556 302.548 9.76225 302.548 11.6085V28.761C302.548 30.2749 301.321 31.5022 299.807 31.5022L285.766 14.1743V31.5022C283.92 31.5022 282.424 30.0055 282.424 28.1593V11.0068C282.424 9.49285 283.651 8.26556 285.165 8.26556L299.205 25.5935V8.26556ZM326.665 8.26556C328.239 8.26556 329.293 9.88375 328.657 11.3235L320.414 29.9875C320.007 30.9082 319.095 31.5022 318.089 31.5022C317.084 31.5022 316.173 30.9095 315.765 29.9903L307.602 11.5664C306.913 10.0132 308.051 8.26556 309.749 8.26556L318.174 27.3528L326.665 8.26556ZM333.331 11.6085C333.331 9.76225 334.828 8.26556 336.674 8.26556V28.1593C336.674 30.0055 335.177 31.5022 333.331 31.5022V11.6085ZM360.791 8.26556C362.365 8.26556 363.419 9.88375 362.783 11.3235L354.54 29.9875C354.133 30.9082 353.221 31.5022 352.215 31.5022C351.21 31.5022 350.299 30.9095 349.891 29.9903L341.728 11.5664C341.039 10.0132 342.177 8.26556 343.875 8.26556L352.3 27.3528L360.791 8.26556ZM367.457 11.6085C367.457 9.76225 368.954 8.26556 370.8 8.26556V28.1593C370.8 30.0055 369.303 31.5022 367.457 31.5022V11.6085ZM378.326 31.5022C376.752 31.5022 375.698 29.884 376.334 28.4443L384.577 9.78025C384.984 8.85955 385.895 8.26556 386.902 8.26556C387.907 8.26556 388.818 8.85825 389.225 9.77746L397.389 28.2014C398.077 29.7546 396.94 31.5022 395.241 31.5022L386.817 12.415L378.326 31.5022ZM402.987 11.6085C402.987 9.76225 404.484 8.26556 406.33 8.26556V26.8776C406.33 27.8367 407.108 28.6142 408.067 28.6142H419C419 30.2092 417.707 31.5022 416.112 31.5022H406.461C404.542 31.5022 402.987 29.9472 402.987 28.0289V11.6085Z" fill="white"/>
<path fill-rule="evenodd" clip-rule="evenodd" d="M392.29 24.6485C391.274 26.367 389.21 27.543 386.829 27.543C384.46 27.543 382.404 26.3786 381.383 24.674C381.706 27.5025 384.024 29.6959 386.835 29.6959C389.654 29.6959 391.978 27.4893 392.29 24.6485Z" fill="#E71147"/>
<path fill-rule="evenodd" clip-rule="evenodd" d="M228 47.1602C228 41.1735 232.853 36.3203 238.84 36.3203H288.116C294.103 36.3203 298.956 41.1735 298.956 47.1602C298.956 53.1468 294.103 58 288.116 58H238.84C232.853 58 228 53.1468 228 47.1602Z" fill="white"/>
<path d="M241.116 53.983H245.056C248.377 53.983 250.671 51.6734 250.671 48.6996V48.6694C250.671 45.6956 248.377 43.4162 245.056 43.4162H241.116V53.983ZM245.056 45.1069C247.275 45.1069 248.724 46.6315 248.724 48.6996V48.7298C248.724 50.7979 247.275 52.2923 245.056 52.2923H242.972V45.1069H245.056ZM252.787 53.983H260.697V52.3225H254.644V49.4846H259.943V47.8241H254.644V45.0767H260.622V43.4162H252.787V53.983ZM262.764 53.983H264.59V46.4353L267.896 51.3866H267.957L271.293 46.4051V53.983H273.149V43.4162H271.172L267.957 48.4128L264.741 43.4162H262.764V53.983ZM280.774 54.1641C284.02 54.1641 286.314 51.6734 286.314 48.6996V48.6694C286.314 45.6956 284.05 43.2351 280.805 43.2351C277.559 43.2351 275.265 45.7258 275.265 48.6996V48.7298C275.265 51.7036 277.529 54.1641 280.774 54.1641ZM280.805 52.4433C278.706 52.4433 277.212 50.7526 277.212 48.6996V48.6694C277.212 46.6164 278.676 44.9409 280.774 44.9409C282.873 44.9409 284.367 46.6466 284.367 48.6996V48.7298C284.367 50.7828 282.903 52.4433 280.805 52.4433Z" fill="#444444"/>
</g>
<path fill-rule="evenodd" clip-rule="evenodd" d="M128.583 58.8495C134.415 62.3966 137.547 66 137.547 66C137.547 66 131.293 62.6712 125.249 60.8055C119.205 58.9397 112 58.1138 112 58.1138V14.8804L116.676 15.7237V53.3058C116.676 53.3058 122.751 55.3024 128.583 58.8495ZM165.417 58.8495C159.585 62.3966 156.453 66 156.453 66C156.453 66 162.707 62.6712 168.751 60.8055C174.795 58.9397 182 58.1138 182 58.1138V14.8804L177.324 15.7237V53.3058C177.324 53.3058 171.249 55.3024 165.417 58.8495Z" fill="#E01448"/>
<path fill-rule="evenodd" clip-rule="evenodd" d="M146.511 65.4834V27.1987C146.511 27.1987 144.998 20.6331 139.519 12.3207C134.04 4.00822 128.583 0 128.583 0V42.5901C128.583 42.5901 134.415 46.8836 138.478 52.0721C142.541 57.2606 146.511 65.4834 146.511 65.4834ZM140.818 63.2938C140.818 63.2938 139.166 58.6099 134.417 53.167C129.668 47.7241 124.532 44.6284 124.532 44.6284V9.95915L120.284 7.77747V50.3449C120.284 50.3449 125.362 52.1724 130.551 55.445C135.741 58.7176 140.818 63.2938 140.818 63.2938ZM147.489 65.4834V27.1987C147.489 27.1987 149.002 20.6331 154.481 12.3207C159.96 4.00822 165.417 0 165.417 0V42.5901C165.417 42.5901 159.585 46.8836 155.522 52.0721C151.459 57.2606 147.489 65.4834 147.489 65.4834ZM153.182 63.2938C153.182 63.2938 154.834 58.6099 159.583 53.167C164.332 47.7241 169.468 44.6284 169.468 44.6284V9.95915L173.716 7.77747V50.3449C173.716 50.3449 168.638 52.1724 163.449 55.445C158.259 58.7176 153.182 63.2938 153.182 63.2938Z" fill="white"/>
<path opacity="0.14" fill-rule="evenodd" clip-rule="evenodd" d="M146.511 34.72V65.4834C146.511 65.4834 142.541 57.2606 138.478 52.0721C145.947 47.3814 146.511 34.72 146.511 34.72ZM147.489 34.72V65.4834C147.489 65.4834 151.459 57.2606 155.522 52.0721C148.053 47.3814 147.489 34.72 147.489 34.72Z" fill="black"/>
<rect x="204" width="2" height="66" fill="#888888"/>
<path d="M21.8945 36.8242C21.8945 38.4648 21.5267 39.7702 20.791 40.7402C20.0618 41.7103 19.056 42.1953 17.7734 42.1953C16.5365 42.1953 15.5729 41.7493 14.8828 40.8574L14.7656 42H12.6172V27H14.9902V32.4492C15.6738 31.6419 16.5951 31.2383 17.7539 31.2383C19.043 31.2383 20.0553 31.7168 20.791 32.6738C21.5267 33.6309 21.8945 34.9688 21.8945 36.6875V36.8242ZM19.5215 36.6191C19.5215 35.4733 19.3197 34.6139 18.916 34.041C18.5124 33.4681 17.9264 33.1816 17.1582 33.1816C16.1296 33.1816 15.4069 33.6309 14.9902 34.5293V38.8848C15.4134 39.8027 16.1426 40.2617 17.1777 40.2617C17.9199 40.2617 18.4928 39.985 18.8965 39.4316C19.3001 38.8783 19.5085 38.0417 19.5215 36.9219V36.6191ZM23.4473 36.6191C23.4473 35.584 23.6523 34.653 24.0625 33.8262C24.4727 32.9928 25.0488 32.3548 25.791 31.9121C26.5332 31.4629 27.3861 31.2383 28.3496 31.2383C29.7754 31.2383 30.931 31.6973 31.8164 32.6152C32.7083 33.5332 33.1901 34.7507 33.2617 36.2676L33.2715 36.8242C33.2715 37.8659 33.0697 38.7969 32.666 39.6172C32.2689 40.4375 31.696 41.0723 30.9473 41.5215C30.2051 41.9707 29.3457 42.1953 28.3691 42.1953C26.8783 42.1953 25.6836 41.7005 24.7852 40.7109C23.8932 39.7148 23.4473 38.39 23.4473 36.7363V36.6191ZM25.8203 36.8242C25.8203 37.9115 26.0449 38.7643 26.4941 39.3828C26.9434 39.9948 27.5684 40.3008 28.3691 40.3008C29.1699 40.3008 29.7917 39.9883 30.2344 39.3633C30.6836 38.7383 30.9082 37.8236 30.9082 36.6191C30.9082 35.5514 30.6771 34.7051 30.2148 34.0801C29.7591 33.4551 29.1374 33.1426 28.3496 33.1426C27.5749 33.1426 26.9596 33.4518 26.5039 34.0703C26.0482 34.6823 25.8203 35.6003 25.8203 36.8242ZM34.834 36.6191C34.834 35.584 35.0391 34.653 35.4492 33.8262C35.8594 32.9928 36.4355 32.3548 37.1777 31.9121C37.9199 31.4629 38.7728 31.2383 39.7363 31.2383C41.1621 31.2383 42.3177 31.6973 43.2031 32.6152C44.0951 33.5332 44.5768 34.7507 44.6484 36.2676L44.6582 36.8242C44.6582 37.8659 44.4564 38.7969 44.0527 39.6172C43.6556 40.4375 43.0827 41.0723 42.334 41.5215C41.5918 41.9707 40.7324 42.1953 39.7559 42.1953C38.265 42.1953 37.0703 41.7005 36.1719 40.7109C35.2799 39.7148 34.834 38.39 34.834 36.7363V36.6191ZM37.207 36.8242C37.207 37.9115 37.4316 38.7643 37.8809 39.3828C38.3301 39.9948 38.9551 40.3008 39.7559 40.3008C40.5566 40.3008 41.1784 39.9883 41.6211 39.3633C42.0703 38.7383 42.2949 37.8236 42.2949 36.6191C42.2949 35.5514 42.0638 34.7051 41.6016 34.0801C41.1458 33.4551 40.5241 33.1426 39.7363 33.1426C38.9616 33.1426 38.3464 33.4518 37.8906 34.0703C37.4349 34.6823 37.207 35.6003 37.207 36.8242ZM50.0977 37.4688L49.043 38.5527V42H46.6699V27H49.043V35.6523L49.7852 34.7246L52.7051 31.4336H55.5566L51.6309 35.8379L55.9766 42H53.2324L50.0977 37.4688ZM63.0371 39.1289C63.0371 38.7057 62.8613 38.3835 62.5098 38.1621C62.1647 37.9408 61.5885 37.7454 60.7812 37.5762C59.974 37.4069 59.3001 37.1921 58.7598 36.9316C57.5749 36.3587 56.9824 35.5286 56.9824 34.4414C56.9824 33.5299 57.3665 32.7682 58.1348 32.1562C58.903 31.5443 59.8796 31.2383 61.0645 31.2383C62.3275 31.2383 63.3464 31.5508 64.1211 32.1758C64.9023 32.8008 65.293 33.6113 65.293 34.6074H62.9199C62.9199 34.1517 62.7507 33.7741 62.4121 33.4746C62.0736 33.1686 61.6243 33.0156 61.0645 33.0156C60.5436 33.0156 60.1172 33.1361 59.7852 33.377C59.4596 33.6178 59.2969 33.9401 59.2969 34.3438C59.2969 34.7083 59.4499 34.9915 59.7559 35.1934C60.0618 35.3952 60.6803 35.6003 61.6113 35.8086C62.5423 36.0104 63.2715 36.2546 63.7988 36.541C64.3327 36.821 64.7266 37.1595 64.9805 37.5566C65.2409 37.9538 65.3711 38.4355 65.3711 39.002C65.3711 39.9525 64.9772 40.724 64.1895 41.3164C63.4017 41.9023 62.3698 42.1953 61.0938 42.1953C60.2279 42.1953 59.4564 42.0391 58.7793 41.7266C58.1022 41.4141 57.5749 40.9844 57.1973 40.4375C56.8197 39.8906 56.6309 39.3014 56.6309 38.6699H58.9355C58.9681 39.2298 59.1797 39.6628 59.5703 39.9688C59.9609 40.2682 60.4785 40.418 61.123 40.418C61.748 40.418 62.2233 40.3008 62.5488 40.0664C62.8743 39.8255 63.0371 39.513 63.0371 39.1289ZM69.7852 32.5859C70.5599 31.6875 71.5397 31.2383 72.7246 31.2383C74.9772 31.2383 76.1198 32.5241 76.1523 35.0957V42H73.7793V35.1836C73.7793 34.4544 73.6198 33.9401 73.3008 33.6406C72.9883 33.3346 72.526 33.1816 71.9141 33.1816C70.9635 33.1816 70.2539 33.6048 69.7852 34.4512V42H67.4121V27H69.7852V32.5859ZM78.1152 36.6191C78.1152 35.584 78.3203 34.653 78.7305 33.8262C79.1406 32.9928 79.7168 32.3548 80.459 31.9121C81.2012 31.4629 82.054 31.2383 83.0176 31.2383C84.4434 31.2383 85.599 31.6973 86.4844 32.6152C87.3763 33.5332 87.8581 34.7507 87.9297 36.2676L87.9395 36.8242C87.9395 37.8659 87.7376 38.7969 87.334 39.6172C86.9368 40.4375 86.3639 41.0723 85.6152 41.5215C84.873 41.9707 84.0137 42.1953 83.0371 42.1953C81.5462 42.1953 80.3516 41.7005 79.4531 40.7109C78.5612 39.7148 78.1152 38.39 78.1152 36.7363V36.6191ZM80.4883 36.8242C80.4883 37.9115 80.7129 38.7643 81.1621 39.3828C81.6113 39.9948 82.2363 40.3008 83.0371 40.3008C83.8379 40.3008 84.4596 39.9883 84.9023 39.3633C85.3516 38.7383 85.5762 37.8236 85.5762 36.6191C85.5762 35.5514 85.3451 34.7051 84.8828 34.0801C84.4271 33.4551 83.8053 33.1426 83.0176 33.1426C82.2428 33.1426 81.6276 33.4518 81.1719 34.0703C80.7161 34.6823 80.4883 35.6003 80.4883 36.8242ZM99.1992 36.8242C99.1992 38.4583 98.8281 39.7637 98.0859 40.7402C97.3438 41.7103 96.3477 42.1953 95.0977 42.1953C93.9388 42.1953 93.0111 41.8145 92.3145 41.0527V46.0625H89.9414V31.4336H92.1289L92.2266 32.5078C92.9232 31.6615 93.8704 31.2383 95.0684 31.2383C96.3574 31.2383 97.3665 31.7201 98.0957 32.6836C98.8314 33.6406 99.1992 34.972 99.1992 36.6777V36.8242ZM96.8359 36.6191C96.8359 35.5645 96.6243 34.7279 96.2012 34.1094C95.7845 33.4909 95.1855 33.1816 94.4043 33.1816C93.4342 33.1816 92.7376 33.582 92.3145 34.3828V39.0703C92.7441 39.8906 93.4473 40.3008 94.4238 40.3008C95.179 40.3008 95.7682 39.998 96.1914 39.3926C96.6211 38.7806 96.8359 37.8561 96.8359 36.6191Z" fill="white"/>
<defs>
<clipPath id="clip0">
<rect width="191" height="50" fill="white" transform="translate(228 8)"/>
</clipPath>
</defs>
</svg>
